<?xml version="1.0"?>
<svg xmlns="http://www.w3.org/2000/svg" xmlns:xlink="http://www.w3.org/1999/xlink" version="1.1" id="Layer_1" x="0px" y="0px" viewBox="0 0 485.656 485.656" style="enable-background:new 0 0 485.656 485.656;" xml:space="preserve" width="512px" height="512px" class=""><g><g>
	<g>
		<path d="M442.828,125.656H314.356c-3.36-30.192-25.456-54.736-54.368-61.848l52.496-52.496L301.172,0l-58.344,58.344L208.484,24    l-11.312,11.312l28.496,28.496c-28.912,7.112-51.008,31.656-54.368,61.848H42.828c-22.056,0-40,17.944-40,40v240    c0,19.312,13.768,35.472,32,39.192v16.808c0,13.232,10.768,24,24,24s24-10.768,24-24v-16h320v16c0,13.232,10.768,24,24,24    s24-10.768,24-24v-16.808c18.232-3.72,32-19.872,32-39.192v-240C482.828,143.6,464.884,125.656,442.828,125.656z M242.828,77.656    c28.152,0,51.456,20.904,55.36,48h-110.72C191.372,98.56,214.676,77.656,242.828,77.656z M66.828,461.656c0,4.408-3.592,8-8,8    s-8-3.592-8-8v-16h16V461.656z M434.828,461.656c0,4.408-3.592,8-8,8c-4.408,0-8-3.592-8-8v-16h16V461.656z M466.828,405.656    c0,13.232-10.768,24-24,24h-32h-336h-32c-13.232,0-24-10.768-24-24v-240c0-13.232,10.768-24,24-24h400c13.232,0,24,10.768,24,24    V405.656z" data-original="#000000" class="active-path" data-old_color="#000000" fill="#FFFFFF"/>
	</g>
</g><g>
	<g>
		<path d="M362.828,157.656h-320c-4.416,0-8,3.584-8,8v240c0,4.416,3.584,8,8,8h320c4.416,0,8-3.584,8-8v-240    C370.828,161.24,367.244,157.656,362.828,157.656z M354.828,397.656h-304v-36.672l18.304,18.328    c1.504,1.504,3.536,2.344,5.664,2.344c2.12,0,4.16-0.84,5.664-2.344l26.32-26.336l26.336,26.336    c1.496,1.504,3.528,2.344,5.648,2.344c2.12,0,4.16-0.84,5.656-2.344l26.336-26.336l26.336,26.336c3,3,8.312,3,11.312,0    l26.336-26.336l26.336,26.336c1.496,1.504,3.536,2.344,5.656,2.344s4.16-0.84,5.656-2.344l26.344-26.344l26.392,26.352    c3.128,3.12,8.176,3.12,11.304,0l18.4-18.368V397.656z M354.828,338.336l-24.048,24.008l-26.392-26.352    c-3.128-3.12-8.184-3.12-11.312,0l-26.344,26.336l-26.336-26.336c-3-3-8.312-3-11.312,0l-26.336,26.336l-26.336-26.336    c-1.496-1.496-3.528-2.336-5.648-2.336s-4.16,0.84-5.656,2.344l-26.336,26.336L112.428,336c-3-3-8.312-2.992-11.32,0    l-26.32,26.336l-23.96-23.992v-25.36l18.304,18.328c1.504,1.504,3.536,2.344,5.664,2.344c2.12,0,4.16-0.84,5.664-2.344    l26.32-26.336l26.336,26.336c1.496,1.504,3.528,2.344,5.648,2.344c2.12,0,4.16-0.84,5.656-2.344l26.336-26.336l26.336,26.336    c3,3,8.312,3,11.312,0l26.336-26.336l26.336,26.336c1.496,1.504,3.536,2.344,5.656,2.344s4.16-0.84,5.656-2.344l26.344-26.344    l26.392,26.352c3.128,3.12,8.176,3.12,11.304,0l18.4-18.368V338.336z M354.828,290.336l-24.048,24.008l-26.392-26.352    c-3.128-3.12-8.184-3.12-11.312,0l-26.344,26.336l-26.336-26.336c-3-3-8.312-3-11.312,0l-26.336,26.336l-26.336-26.336    c-1.496-1.496-3.528-2.336-5.648-2.336s-4.16,0.84-5.656,2.344l-26.336,26.336L112.428,288c-3-3-8.312-2.992-11.32,0    l-26.32,26.336l-23.96-23.992v-25.36l18.304,18.328c1.504,1.504,3.536,2.344,5.664,2.344c2.12,0,4.16-0.84,5.664-2.344    l26.32-26.336l26.336,26.336c1.496,1.504,3.528,2.344,5.648,2.344c2.12,0,4.16-0.84,5.656-2.344l26.336-26.336l26.336,26.336    c3,3,8.312,3,11.312,0l26.336-26.336l26.336,26.336c1.496,1.504,3.536,2.344,5.656,2.344s4.16-0.84,5.656-2.344l26.344-26.344    l26.392,26.352c3.128,3.12,8.176,3.12,11.304,0l18.4-18.368V290.336z M354.828,242.336l-24.048,24.008l-26.392-26.352    c-3.128-3.12-8.184-3.12-11.312,0l-26.344,26.336l-26.336-26.336c-3-3-8.312-3-11.312,0l-26.336,26.336l-26.336-26.336    c-1.496-1.496-3.528-2.336-5.648-2.336s-4.16,0.84-5.656,2.344l-26.336,26.336L112.428,240c-3-3-8.312-3-11.32,0l-26.32,26.336    l-23.96-23.992v-25.36l18.304,18.328c1.504,1.504,3.536,2.344,5.664,2.344c2.12,0,4.16-0.84,5.664-2.344l26.32-26.336    l26.336,26.336c1.496,1.504,3.528,2.344,5.648,2.344c2.12,0,4.16-0.84,5.656-2.344l26.336-26.336l26.336,26.336    c3,3,8.312,3,11.312,0l26.336-26.336l26.336,26.336c1.496,1.504,3.536,2.344,5.656,2.344s4.16-0.84,5.656-2.344l26.344-26.344    l26.392,26.352c3.128,3.12,8.176,3.12,11.304,0l18.4-18.368V242.336z M354.828,194.336l-24.048,24.008l-26.392-26.352    c-3.128-3.12-8.184-3.12-11.312,0l-26.344,26.336l-26.336-26.336c-3-3-8.312-3-11.312,0l-26.336,26.336l-26.336-26.336    c-1.496-1.496-3.528-2.336-5.648-2.336s-4.16,0.84-5.656,2.344l-26.336,26.336L112.428,192c-3-3-8.312-2.992-11.32,0    l-26.32,26.336l-23.96-23.992v-20.688h304V194.336z" data-original="#000000" class="active-path" data-old_color="#000000" fill="#FFFFFF"/>
	</g>
</g><g>
	<g>
		<path d="M418.828,165.656c-17.648,0-32,14.352-32,32s14.352,32,32,32s32-14.352,32-32S436.476,165.656,418.828,165.656z     M402.828,197.656c0-8.824,7.176-16,16-16c1.424,0,2.776,0.248,4.088,0.6l-19.496,19.496    C403.076,200.432,402.828,199.08,402.828,197.656z M418.828,213.656c-1.424,0-2.776-0.248-4.088-0.6l19.496-19.496    c0.344,1.32,0.592,2.672,0.592,4.096C434.828,206.48,427.652,213.656,418.828,213.656z" data-original="#000000" class="active-path" data-old_color="#000000" fill="#FFFFFF"/>
	</g>
</g><g>
	<g>
		<path d="M418.828,245.656c-17.648,0-32,14.352-32,32s14.352,32,32,32s32-14.352,32-32S436.476,245.656,418.828,245.656z     M418.828,293.656c-5.896,0-11-3.24-13.776-8h27.552C429.828,290.416,424.724,293.656,418.828,293.656z M405.052,269.656    c2.776-4.76,7.88-8,13.776-8s11,3.24,13.776,8H405.052z" data-original="#000000" class="active-path" data-old_color="#000000" fill="#FFFFFF"/>
	</g>
</g><g>
	<g>
		<rect x="386.828" y="333.656" width="64" height="16" data-original="#000000" class="active-path" data-old_color="#000000" fill="#FFFFFF"/>
	</g>
</g><g>
	<g>
		<rect x="386.828" y="365.656" width="64" height="16" data-original="#000000" class="active-path" data-old_color="#000000" fill="#FFFFFF"/>
	</g>
</g><g>
	<g>
		<rect x="386.828" y="397.656" width="64" height="16" data-original="#000000" class="active-path" data-old_color="#000000" fill="#FFFFFF"/>
	</g>
</g></g> </svg>
