<?xml version="1.0" encoding="utf-8"?>
<!-- Generator: Adobe Illustrator 22.1.0, SVG Export Plug-In . SVG Version: 6.00 Build 0)  -->
<svg version="1.1" id="Layer_1" xmlns="http://www.w3.org/2000/svg" xmlns:xlink="http://www.w3.org/1999/xlink" x="0px" y="0px"
	 viewBox="0 0 266.5 100" enable-background="new 0 0 266.5 100" xml:space="preserve">
<g id="Oreti_1_">
	<defs>
		<rect id="Shape_10_" x="-3.5" width="270" height="100"/>
	</defs>
	<clipPath id="Shape_1_">
		<use xlink:href="#Shape_10_"  overflow="visible"/>
	</clipPath>
	<g id="Patterns_17_" clip-path="url(#Shape_1_)">
		<g id="Oreti" transform="translate(-63.000000, 0.000000)">
			<g id="Thur_1_">
				<defs>
					<rect id="Shape_8_" x="63" y="-0.1" width="266.6" height="100.1"/>
				</defs>
				<clipPath id="Shape_2_">
					<use xlink:href="#Shape_8_"  overflow="visible"/>
				</clipPath>
				<g id="Patterns_16_" clip-path="url(#Shape_2_)">
					<g id="Thur-">
						<g id="Thur">
							<polygon id="Shape_33_" fill-rule="evenodd" clip-rule="evenodd" fill="#FFFFFF" points="213,16.5 196.3,33.2 179.7,16.5 
								196.3,-0.1 							"/>
							
								<linearGradient id="SVGID_1_" gradientUnits="userSpaceOnUse" x1="-893.4227" y1="648.2557" x2="-893.2573" y2="648.0903" gradientTransform="matrix(200 0 0 -200 178897.5156 129651)">
								<stop  offset="0" style="stop-color:#FCFCFC"/>
								<stop  offset="1" style="stop-color:#777571"/>
							</linearGradient>
							<polygon fill-rule="evenodd" clip-rule="evenodd" fill="url(#SVGID_1_)" points="246.3,16.5 229.6,33.2 213,16.5 229.6,-0.1 
															"/>
							<path fill-rule="evenodd" clip-rule="evenodd" fill="#FFFFFF" d="M196.3,49.9c0,9.2-7.5,16.7-16.7,16.7H163V33.2h16.7
								C188.9,33.2,196.3,40.6,196.3,49.9z"/>
							<path fill-rule="evenodd" clip-rule="evenodd" fill="#565656" d="M187.8,49.9c0,4.6-3.7,8.3-8.3,8.3h-8.3v-8.3
								c0-4.6,3.7-8.3,8.3-8.3S187.8,45.2,187.8,49.9z"/>
							
								<linearGradient id="SVGID_2_" gradientUnits="userSpaceOnUse" x1="-893.7352" y1="649.8508" x2="-893.5699" y2="649.8094" gradientTransform="matrix(400 0 0 -200 357689.5 130051)">
								<stop  offset="0" style="stop-color:#FCFCFC"/>
								<stop  offset="1" style="stop-color:#777571"/>
							</linearGradient>
							<path fill-rule="evenodd" clip-rule="evenodd" fill="url(#SVGID_2_)" d="M229.6,66.5c18.4,0,33.3,14.9,33.3,33.2v0.1h-66.7
								v-0.1C196.3,81.4,211.2,66.5,229.6,66.5z"/>
							<path fill-rule="evenodd" clip-rule="evenodd" fill="#565656" d="M229.7,66.4c-18.4,0-33.3-14.8-33.3-33.2h66.7
								C263.1,51.6,248.1,66.4,229.7,66.4z"/>
							<polygon fill-rule="evenodd" clip-rule="evenodd" fill="#565656" points="163,33.2 163,-0.1 196.3,-0.1 							"/>
							<polyline fill="#F3FAFF" points="96.3,-0.1 96.3,33.2 63,33.2 							"/>
							<polyline fill-rule="evenodd" clip-rule="evenodd" fill="#565656" points="329.6,66.5 296.3,66.5 296.3,99.8 							"/>
							<polygon fill-rule="evenodd" clip-rule="evenodd" fill="#FFFFFF" points="79.7,49.9 96.3,66.5 79.7,83.2 63,66.5 							"/>
							<polyline fill="#D1D1D1" points="63,99.8 79.7,83.2 96.3,99.8 							"/>
							<polygon fill-rule="evenodd" clip-rule="evenodd" fill="#FFFFFF" points="312.8,74.8 321.1,83.2 312.8,91.5 304.5,83.2 
															"/>
							<polygon fill="#FFFFFF" points="229.6,41.5 238,49.9 229.6,58.2 221.3,49.9 							"/>
							<polygon fill="#F3FAFF" points="279.6,16.5 296.3,33.2 313,16.5 296.3,-0.1 							"/>
							
								<linearGradient id="SVGID_3_" gradientUnits="userSpaceOnUse" x1="-890.5181" y1="649.0768" x2="-890.3528" y2="648.9115" gradientTransform="matrix(200 0 0 -200 178197.5156 129851)">
								<stop  offset="0" style="stop-color:#FCFCFC"/>
								<stop  offset="1" style="stop-color:#777571"/>
							</linearGradient>
							<path fill-rule="evenodd" clip-rule="evenodd" fill="url(#SVGID_3_)" d="M129.7,49.9c0,9.2-7.5,16.7-16.7,16.7H96.3V33.2H113
								C122.2,33.2,129.7,40.6,129.7,49.9z"/>
							<path fill-rule="evenodd" clip-rule="evenodd" fill="#FFFFFF" d="M113,66.5c9.2,0,16.7,7.5,16.7,16.7s-7.5,16.7-16.7,16.7
								H96.3V83.2C96.3,74,103.8,66.5,113,66.5z"/>
							<path fill="#F3FAFF" d="M146.3,66.5c9.2,0,16.7,7.5,16.7,16.7v16.7h-16.7c-9.2,0-16.7-7.5-16.7-16.7S137.1,66.5,146.3,66.5z"
								/>
							
								<linearGradient id="SVGID_4_" gradientUnits="userSpaceOnUse" x1="-891.2676" y1="649.6301" x2="-891.2263" y2="649.4648" gradientTransform="matrix(200 0 0 -400 178397.5156 259851)">
								<stop  offset="0" style="stop-color:#FCFCFC"/>
								<stop  offset="1" style="stop-color:#777571"/>
							</linearGradient>
							<path fill-rule="evenodd" clip-rule="evenodd" fill="url(#SVGID_4_)" d="M129.7,33.2c0-18.4,14.9-33.3,33.3-33.3v66.7
								C144.6,66.5,129.7,51.6,129.7,33.2z"/>
							<polygon fill="#D1D1D1" points="96.3,-0.1 129.7,-0.1 129.7,33.2 							"/>
							<polygon fill-rule="evenodd" clip-rule="evenodd" fill="#FFFFFF" points="129.7,33.2 96.3,33.2 96.3,-0.1 							"/>
							<polygon fill-rule="evenodd" clip-rule="evenodd" fill="#565656" points="63,33.2 96.3,33.2 96.3,66.5 							"/>
							<polygon fill-rule="evenodd" clip-rule="evenodd" fill="#565656" points="296.3,33.2 296.3,-0.1 263,-0.1 							"/>
							
								<linearGradient id="SVGID_5_" gradientUnits="userSpaceOnUse" x1="-892.549" y1="652.0461" x2="-892.3836" y2="651.8808" gradientTransform="matrix(3.700000e-14 200 -200 3.700000e-14 130705.5391 178542.9844)">
								<stop  offset="0" style="stop-color:#FCFCFC"/>
								<stop  offset="1" style="stop-color:#777571"/>
							</linearGradient>
							<polygon fill-rule="evenodd" clip-rule="evenodd" fill="url(#SVGID_5_)" points="329.6,33.2 296.3,33.2 296.3,66.5 							
								"/>
							<polygon fill-rule="evenodd" clip-rule="evenodd" fill="#565656" points="229.6,-0.1 263,-0.1 263,33.2 							"/>
							<path fill="#F3FAFF" d="M263,66.5c0-18.4,14.9-33.3,33.3-33.3v66.7C277.9,99.8,263,84.9,263,66.5z"/>
							<path fill="#D1D1D1" d="M179.7,66.5c9.2,0,16.7,7.5,16.7,16.7s-7.5,16.7-16.7,16.7H163V83.2C163,74,170.4,66.5,179.7,66.5z"
								/>
							<path fill-rule="evenodd" clip-rule="evenodd" fill="#FFFFFF" d="M121.3,49.9c0,4.6-3.7,8.3-8.3,8.3h-8.3v-8.3
								c0-4.6,3.7-8.3,8.3-8.3C117.6,41.5,121.3,45.2,121.3,49.9z"/>
							
								<linearGradient id="SVGID_6_" gradientUnits="userSpaceOnUse" x1="-889.6726" y1="648.2557" x2="-889.5072" y2="648.0903" gradientTransform="matrix(200 0 0 -200 177997.5156 129651)">
								<stop  offset="0" style="stop-color:#FCFCFC"/>
								<stop  offset="1" style="stop-color:#777571"/>
							</linearGradient>
							<polygon fill-rule="evenodd" clip-rule="evenodd" fill="url(#SVGID_6_)" points="79.7,-0.1 96.3,16.5 79.7,33.2 63,16.5 
															"/>
							<polyline fill-rule="evenodd" clip-rule="evenodd" fill="#FFFFFF" points="79.7,8.2 88,16.5 79.7,24.9 							"/>
							<polyline fill-rule="evenodd" clip-rule="evenodd" fill="#565656" points="71.3,99.8 79.7,91.5 88,99.8 							"/>
							<circle fill-rule="evenodd" clip-rule="evenodd" fill="#FFFFFF" cx="229.6" cy="83.2" r="8.3"/>
							<circle fill-rule="evenodd" clip-rule="evenodd" fill="#565656" cx="113" cy="83.2" r="8.3"/>
							<circle fill-rule="evenodd" clip-rule="evenodd" fill="#565656" cx="113" cy="16.5" r="8.3"/>
							
								<linearGradient id="SVGID_7_" gradientUnits="userSpaceOnUse" x1="-890.2938" y1="649.2615" x2="-890.1284" y2="649.0961" gradientTransform="matrix(100 0 0 -100 89200.5313 65001)">
								<stop  offset="0" style="stop-color:#FCFCFC"/>
								<stop  offset="1" style="stop-color:#777571"/>
							</linearGradient>
							<polygon fill-rule="evenodd" clip-rule="evenodd" fill="url(#SVGID_7_)" points="179.5,74.8 187.8,83.2 179.5,91.5 
								171.2,83.2 							"/>
							<polygon fill-rule="evenodd" clip-rule="evenodd" fill="#565656" points="313,8.2 321.3,16.5 313,24.9 304.6,16.5 							"/>
						</g>
					</g>
				</g>
			</g>
		</g>
		<polygon fill-rule="evenodd" clip-rule="evenodd" fill="#565656" points="266.6,49.9 250,66.6 233.3,49.9 250,33.3 		"/>
	</g>
</g>
</svg>
