<?xml version="1.0"?>
<svg xmlns="http://www.w3.org/2000/svg" xmlns:xlink="http://www.w3.org/1999/xlink" version="1.1" id="Capa_1" x="0px" y="0px" viewBox="0 0 512 512" style="enable-background:new 0 0 512 512;" xml:space="preserve" width="512px" height="512px" class=""><g><g>
	<g>
		<path d="M380.098,230.714c-14.466-18.016-33.2-30.028-55.091-35.546L307.562,71.57h2.742c19.732,0,35.785-16.054,35.785-35.785    C346.088,16.054,330.036,0,310.304,0H201.697c-19.731,0-35.785,16.054-35.785,35.785c0,19.731,16.053,35.785,35.785,35.785h2.743    l-17.435,123.596c-21.895,5.516-40.634,17.53-55.102,35.549c-18.642,23.218-28.909,55.571-28.909,91.1    c0,5.528,4.481,10.01,10.01,10.01h112.967v86.649c0,0.785,0.092,1.566,0.274,2.329l19.978,83.518    c1.073,4.484,5.071,7.656,9.682,7.68c0.018,0,0.035,0,0.053,0c4.589,0,8.594-3.123,9.709-7.579l20.062-80.142    c0.198-0.795,0.299-1.612,0.299-2.43v-90.024h112.967c5.527,0,10.01-4.481,10.01-10.01    C409.007,286.285,398.74,253.932,380.098,230.714z M201.697,51.55c-8.693,0-15.765-7.072-15.765-15.765    c0-8.694,7.072-15.765,15.765-15.765h108.606c8.693,0,15.765,7.072,15.765,15.765c0,8.693-7.073,15.765-15.765,15.765H201.697z     M304.337,191.963c-2.73-0.177-5.493-0.276-8.297-0.276h-80.078c-2.8,0-5.56,0.098-8.287,0.275L224.658,71.57h62.686    L304.337,191.963z M266.01,420.614l-9.831,39.272l-10.189-42.594v-85.469h20.02V420.614z M123.335,311.805    c2.955-45.812,26.39-89.578,74.26-98.461c0.091-0.015,0.182-0.03,0.272-0.047c5.687-1.037,11.713-1.59,18.095-1.59h80.078    c6.397,0,12.438,0.555,18.138,1.597c0.063,0.012,0.126,0.022,0.189,0.033c47.897,8.865,71.343,52.643,74.3,98.468H123.335z" data-original="#000000" class="active-path" fill="#000000"/>
	</g>
</g><g>
	<g>
		<path d="M227.662,235.472c-0.395-5.514-5.186-9.67-10.701-9.266c-24.587,1.769-44.423,13.11-57.365,32.796    c-3.037,4.619-1.753,10.827,2.866,13.864c1.695,1.114,3.603,1.647,5.489,1.647c3.257,0,6.451-1.588,8.374-4.512    c9.388-14.282,23.936-22.521,42.072-23.825C223.91,245.778,228.059,240.986,227.662,235.472z" data-original="#000000" class="active-path" fill="#000000"/>
	</g>
</g><g>
	<g>
		<path d="M155.986,278.877h-0.2c-5.528,0-10.01,4.481-10.01,10.01c0,5.528,4.481,10.01,10.01,10.01h0.2    c5.528,0,10.01-4.481,10.01-10.01C165.996,283.359,161.514,278.877,155.986,278.877z" data-original="#000000" class="active-path" fill="#000000"/>
	</g>
</g></g> </svg>
